# xmcd
#
# Track frame offsets: 
#        150
#        12880
#        28018
#        38811
#        54035
#        72402
#        85339
#        99510
#        116588
#        127271
#
# Disc length: 1888 seconds
#
# Revision: 0
# Processed by: cddbd v1.5.2PL0 Copyright (c) Steve Scherf et al.
# Submitted via: ExactAudioCopy v0.95a5
#
DISCID=7f075e0a
DTITLE=Various Artist - Country Gospel- Old Rugged Cross
DYEAR=2006
DGENRE=Country
TTITLE0=Patsy Cline - Just A Closer Walk With Thee
TTITLE1=The Jordanaires - Swing Low Sweet Chariot
TTITLE2=Eddy Raven - Love Lifted Me
TTITLE3=Holly Dunn - Just As I Am
TTITLE4=T. Graham Brown - Old Rugged Cross
TTITLE5=Sandy Posey - Blessed Assurance
TTITLE6=Deborah Allen - In The Sweet By And By
TTITLE7=Bill Anderson - Pass Me Not Oh Gentle Savior
TTITLE8=Pat Boone - Do Lord
TTITLE9=Deborah Allen - He's Got The Whole World In His Hands
EXTD=
EXTT0=
EXTT1=
EXTT2=
EXTT3=
EXTT4=
EXTT5=
EXTT6=
EXTT7=
EXTT8=
EXTT9=
PLAYORDER=
